<svg  xmlns="http://www.w3.org/2000/svg" viewBox="0 0 20 20"><path class="v-speak" d="M5 7l4.146-4.146a.5.5 0 01.854.353v13.586a.5.5 0 01-.854.353L5 13H4a2 2 0 01-2-2V9a2 2 0 012-2h1zM14 10a2 2 0 00-2-2v4a2 2 0 002-2z"></path><path class="v-mute" d="M5 7l4.146-4.146a.5.5 0 01.854.353v13.586a.5.5 0 01-.854.353L5 13H4a2 2 0 01-2-2V9a2 2 0 012-2h1zM12 8.414L13.414 7l1.623 1.623L16.66 7l1.414 1.414-1.623 1.623 1.623 1.623-1.414 1.414-1.623-1.623-1.623 1.623L12 11.66l1.623-1.623L12 8.414z"></path></svg>